
        <svg xmlns="http://www.w3.org/2000/svg" xmlns:xlink="http://www.w3.org/1999/xlink" version="1.1" width="3176.470588235294" height="1385.294117647059" viewBox="0 0 3176.470588235294 1385.294117647059">
			
			<g transform="scale(8.823529411764707) translate(10, 10)">
				<defs id="SvgjsDefs1153"/><g id="SvgjsG1154" featureKey="symbolContainer" transform="matrix(1,0,0,1,0,0)" fill="#000"><rect width="120" height="137" rx="8"/></g><g id="SvgjsG1155" featureKey="monogramFeature-0" transform="matrix(2.436148664228836,0,0,2.436148664228836,19.999997821913365,-24.413359372794687)" fill="#ffffff"><path d="M0.72 16.560000000000002 l0 0 c0 -0.06 30.72 -0.48 30.84 -0.36 c1.92 1.74 1.44 41.7 0.12 42.9 c-1.2 1.08 -30.36 1.38 -31.14 0 c-1.2 -2.22 -0.06 -42.48 0.18 -42.54 z M14.58 25.14 l-0.42 17.4 l-0.12 7.86 c-0.06 1.14 0.84 2.04 1.92 2.04 c1.14 0.06 2.04 -0.84 2.04 -1.92 l0.18 -7.86 l0.42 -17.46 c0.06 -1.08 -0.84 -2.04 -1.98 -2.04 c-1.08 -0.06 -2.04 0.84 -2.04 1.98 z"/></g><g id="SvgjsG1156" featureKey="nameFeature-0" transform="matrix(1.9584803129934603,0,0,1.9584803129934603,136.47473693081366,18.281627622174913)" fill="#000"><path d="M16.32 11.600000000000001 c7.8 0 14.52 5.88 14.52 14.4 s-6.72 14.4 -14.52 14.4 s-14.52 -5.88 -14.52 -14.4 s6.72 -14.4 14.52 -14.4 z M16.32 34.92 c4.72 0 8.44 -3.72 8.44 -8.92 s-3.72 -8.92 -8.44 -8.92 s-8.44 3.72 -8.44 8.92 s3.72 8.92 8.44 8.92 z M61.96 18.88 c4.32 0 8.24 2.8 8.24 9.76 l0 11.36 l-5.72 0 l0 -11.24 c0 -2.88 -1.32 -4.88 -4.28 -4.88 c-2.68 0 -4.36 2.28 -4.88 4.4 l0 11.72 l-5.72 0 l0 -11.24 c0 -2.88 -1.8 -4.88 -4.28 -4.88 c-2.8 0 -4.44 2 -4.88 4.4 l0 11.72 l-5.72 0 l0 -20.8 l5.72 0 l0 4 c0.12 -1.08 2.16 -4.32 6.32 -4.32 c2.96 0 5.92 1.6 7.52 4.68 c0.56 -1.32 2.96 -4.68 7.68 -4.68 z M86.44 18.88 c3.96 0 7.88 2.6 7.88 9.16 l0 11.96 l-5.72 0 l0 -11.56 c0 -3.4 -1.32 -4.56 -3.52 -4.56 c-3.04 0 -4.84 2.88 -5.28 4.32 l0 11.8 l-5.72 0 l0 -20.8 l5.72 0 l0 3.84 c0.4 -1.08 2.64 -4.16 6.64 -4.16 z M103.92 11.719999999999999 l0 4.88 l-5.72 0 l0 -4.88 l5.72 0 z M103.92 19.2 l0 20.8 l-5.72 0 l0 -20.8 l5.72 0 z"/></g>
			</g>
		</svg>
	